<?xml version="1.0" encoding="UTF-8" standalone="no"?>
<!-- Uploaded to: SVG Repo, www.svgrepo.com, Generator: SVG Repo Mixer Tools -->
<svg 
   viewBox="0 0 600 600"
   version="1.1"
   id="svg9724"
   sodipodi:docname="user.svg"
   inkscape:version="1.2.2 (1:1.2.2+202212051550+b0a8486541)"
   width="600"
   height="600"
   xmlns:inkscape="http://www.inkscape.org/namespaces/inkscape"
   xmlns:sodipodi="http://sodipodi.sourceforge.net/DTD/sodipodi-0.dtd"
   xmlns="http://www.w3.org/2000/svg"
   xmlns:svg="http://www.w3.org/2000/svg">
  <defs
     id="defs9728" />
  <sodipodi:namedview
     id="namedview9726"
     pagecolor="#ffffff"
     bordercolor="#666666"
     borderopacity="1.0"
     inkscape:showpageshadow="2"
     inkscape:pageopacity="0.0"
     inkscape:pagecheckerboard="0"
     inkscape:deskcolor="#d1d1d1"
     showgrid="true"
     inkscape:zoom="0.84118632"
     inkscape:cx="24.370344"
     inkscape:cy="385.76471"
     inkscape:window-width="1920"
     inkscape:window-height="1009"
     inkscape:window-x="0"
     inkscape:window-y="1080"
     inkscape:window-maximized="1"
     inkscape:current-layer="g10449"
     showguides="true">
    <inkscape:grid
       type="xygrid"
       id="grid9972"
       originx="0"
       originy="0" />
    <sodipodi:guide
       position="-260,300"
       orientation="0,-1"
       id="guide383"
       inkscape:locked="false" />
    <sodipodi:guide
       position="300,520"
       orientation="1,0"
       id="guide385"
       inkscape:locked="false" />
    <sodipodi:guide
       position="240,520"
       orientation="0,-1"
       id="guide939"
       inkscape:locked="false" />
    <sodipodi:guide
       position="220,80"
       orientation="0,-1"
       id="guide941"
       inkscape:locked="false" />
  </sodipodi:namedview>
  
  <g
     id="g10449"
     transform="matrix(0.95173205,0,0,0.95115787,13.901174,12.168794)"
     style="stroke-width:1.05103">
    <g
       id="path10026"
       inkscape:transform-center-x="-0.59233046"
       inkscape:transform-center-y="-20.347403"
       transform="matrix(1.3807551,0,0,1.2700888,273.60014,263.99768)" />
    <g
       id="g11314"
       transform="matrix(1.5092301,0,0,1.3955555,36.774048,-9.4503933)"
       style="stroke-width:50.6951" />
    <path
       style="color:#000000;fill:#000000;stroke-linecap:round;stroke-linejoin:round;-inkscape-stroke:none;paint-order:stroke fill markers"
       d="m 300.60937,-12.792969 c -86.55905,0 -157.60742,71.102331 -157.60742,157.671879 0,86.56954 71.04837,157.67382 157.60742,157.67382 86.55906,0 157.60743,-71.10428 157.60743,-157.67382 0,-86.569548 -71.04837,-157.671879 -157.60743,-157.671879 z m 0,84.082031 c 41.0916,0 73.52344,32.435978 73.52344,73.589848 0,41.15386 -32.43184,73.59179 -73.52344,73.59179 -41.09159,0 -73.52539,-32.43793 -73.52539,-73.59179 0,-41.15387 32.4338,-73.589848 73.52539,-73.589848 z"
       id="path295" />
    <path
       style="color:#000000;fill:#000000;stroke-linecap:round;stroke-linejoin:round;-inkscape-stroke:none;paint-order:stroke fill markers"
       d="m 300.60937,243.98828 c -174.98519,0 -315.214839,150.44729 -315.214839,331.98633 a 42.045506,42.045506 0 0 0 42.041016,42.04101 H 300.60937 573.78125 a 42.045506,42.045506 0 0 0 42.04297,-42.04101 c 0,-181.53904 -140.22965,-331.98633 -315.21485,-331.98633 z m 0,84.08203 c 113.62527,0 209.20909,87.75805 227.80274,205.86328 H 300.60937 72.804687 C 91.398341,415.82836 186.98411,328.07031 300.60937,328.07031 Z"
       id="path297" />
  </g>
</svg>